#tb 0: 1/44100
#media_type 0: audio
#codec_id 0: pcm_s16le
#sample_rate 0: 44100
#channel_layout_name 0: mono
0,          0,          0,     4096,     8192, 0x872af341
0,       4096,       4096,     4096,     8192, 0x0ae4f7ce
0,       8192,       8192,     4096,     8192, 0xceb1df59
0,      12288,      12288,     4096,     8192, 0xc0d9e981
0,      16384,      16384,     4096,     8192, 0x2d1dcd22
0,      20480,      20480,     4096,     8192, 0xe06dfc64
0,      24576,      24576,     4096,     8192, 0x824efe11
0,      28672,      28672,     4096,     8192, 0xb4c0f85d
0,      32768,      32768,     4096,     8192, 0xcd65deed
0,      36864,      36864,     4096,     8192, 0x0e6edb9d
0,      40960,      40960,     4096,     8192, 0xe254cff0
0,      45056,      45056,     4096,     8192, 0x2f7b9900
0,      49152,      49152,     4096,     8192, 0x3f4c142e
0,      53248,      53248,     4096,     8192, 0x7a4a0826
0,      57344,      57344,     4096,     8192, 0x65db11e9
0,      61440,      61440,     4096,     8192, 0x1f887f95
0,      65536,      65536,     4096,     8192, 0x17d4cdad
0,      69632,      69632,     4096,     8192, 0xd037d9b5
0,      73728,      73728,     4096,     8192, 0xe254cff0
0,      77824,      77824,     4096,     8192, 0x2f7b9900
